<?xml version="1.0" encoding="utf-8"?>
<!-- Generator: Adobe Illustrator 23.0.6, SVG Export Plug-In . SVG Version: 6.00 Build 0)  -->
<svg version="1.1" id="Layer_1" xmlns="http://www.w3.org/2000/svg" xmlns:xlink="http://www.w3.org/1999/xlink" x="0px" y="0px"
	 viewBox="0 0 512 512" enable-background="new 0 0 512 512" xml:space="preserve">
<g>
	<path fill="#FFFFFF" d="M256,6C118.2,6,6,118.2,6,256s112.2,250,250,250s250-112.2,250-250S393.8,6,256,6z M256,474.8
		c-120.6,0-218.7-98.1-218.7-218.7S135.4,37.3,256,37.3S474.8,135.4,474.8,256S376.6,474.8,256,474.8z"/>
	<path fill="#FFFFFF" d="M344.4,167.6L344.4,167.6c-6.1-6.1-16-6.1-22.1,0L256,233.9l-66.3-66.3c-6.1-6.1-16-6.1-22.1,0l0,0
		c-6.1,6.1-6.1,16,0,22.1l66.3,66.3l-66.3,66.3c-6.1,6.1-6.1,16,0,22.1l0,0c6.1,6.1,16,6.1,22.1,0l66.3-66.3l66.3,66.3
		c6.1,6.1,16,6.1,22.1,0l0,0c6.1-6.1,6.1-16,0-22.1L278.1,256l66.3-66.3C350.5,183.6,350.5,173.7,344.4,167.6z"/>
</g>
<g>
	<path d="M992-649c-137.8,0-250,112.2-250,250s112.2,250,250,250s250-112.2,250-250S1129.8-649,992-649z M992-180.2
		c-120.6,0-218.7-98.1-218.7-218.7S871.4-617.7,992-617.7s218.8,98.1,218.8,218.7S1112.6-180.2,992-180.2z"/>
	<path d="M992-524L992-524c-8.6,0-15.6,7-15.6,15.6v93.8h-93.8c-8.6,0-15.6,7-15.6,15.6v0c0,8.6,7,15.6,15.6,15.6h93.8v93.8
		c0,8.6,7,15.6,15.6,15.6h0c8.6,0,15.6-7,15.6-15.6v-93.8h93.8c8.6,0,15.6-7,15.6-15.6v0c0-8.6-7-15.6-15.6-15.6h-93.8l0-93.8
		C1007.6-517,1000.6-524,992-524z"/>
</g>
<g>
	<g>
		<g>
			<path d="M490.4-586.5h-78.1c-8.6,0-15.6,7-15.6,15.6v78.1c0,8.6,7,15.6,15.6,15.6h0c8.6,0,15.6-7,15.6-15.6v-41.1
				c30.4,38.3,47,85.9,46.9,134.8c0.1,120.8-97.9,218.8-218.8,218.9C135.4-180.1,37-278.3,37-398.9c0-120.8,97.9-218.8,218.8-218.9
				c31.2,0,62,6.6,90.4,19.5c7.5,3.4,16.4,0.5,20.3-6.8l0,0c4.3-8,0.9-17.9-7.4-21.7c-120-54.4-263.4-6.2-325.1,112.8
				c-62.8,121.1-16.1,271.2,104.3,335.4c121.7,64.9,273,19.1,338.1-102.4C495.8-317.3,506-357.8,506-399
				c0.1-56.9-19.4-112-55.2-156.2h39.6c8.6,0,15.6-7,15.6-15.6l0,0C506-579.5,499-586.5,490.4-586.5z"/>
		</g>
	</g>
</g>
<g>
	<path d="M1994.7-649h-469.5c-8.4,0-15.3,6.8-15.3,15.3v469.5c0,8.4,6.8,15.3,15.3,15.3h469.5c8.4,0,15.3-6.8,15.3-15.3v-469.5
		C2010-642.2,2003.2-649,1994.7-649z M1979.5-414.3h-204.2v-204.2h204.2V-414.3z M1540.5-618.5h204.2v204.2h-204.2V-618.5z
		 M1540.5-383.7h204.2v204.2h-204.2V-383.7z M1979.5-179.5h-204.2v-204.2h204.2V-179.5z"/>
	<path d="M1877.4-309.5c9.2,0,16.6-7.4,16.6-16.6c0-9.2-7.4-16.6-16.6-16.6c-9.2,0-16.6,7.4-16.6,16.6
		C1860.8-316.9,1868.2-309.5,1877.4-309.5z"/>
	<path d="M1877.4-253.8c-9.2,0-16.6,7.4-16.6,16.6c0,9.2,7.4,16.6,16.6,16.6c9.2,0,16.6-7.4,16.6-16.6
		C1894-246.3,1886.5-253.8,1877.4-253.8z"/>
	<path d="M1835.6-266.4h83.6c8.4,0,15.3-6.8,15.3-15.3c0-8.4-6.8-15.3-15.3-15.3h-83.6c-8.4,0-15.3,6.8-15.3,15.3
		C1820.3-273.2,1827.1-266.4,1835.6-266.4z"/>
	<path d="M1835.3-501.1h84.1c8.4,0,15.3-6.8,15.3-15.3c0-8.4-6.8-15.3-15.3-15.3h-84.1c-8.4,0-15.3,6.8-15.3,15.3
		C1820-507.9,1826.9-501.1,1835.3-501.1z"/>
	<path d="M1684.7-531.6h-26.8v-26.8c0-8.4-6.8-15.3-15.3-15.3c-8.4,0-15.3,6.8-15.3,15.3v26.8h-26.8c-8.4,0-15.3,6.8-15.3,15.3
		c0,8.4,6.8,15.3,15.3,15.3h26.8v26.8c0,8.4,6.8,15.3,15.3,15.3c8.4,0,15.3-6.8,15.3-15.3v-26.8h26.8c8.4,0,15.3-6.8,15.3-15.3
		C1700-524.8,1693.1-531.6,1684.7-531.6z"/>
	<path d="M1664.2-281.6l18.9-18.9c6-6,6-15.6,0-21.6s-15.6-6-21.6,0l-18.9,18.9l-18.9-18.9c-6-6-15.6-6-21.6,0c-6,6-6,15.6,0,21.6
		l18.9,18.9l-18.9,18.9c-6,6-6,15.6,0,21.6c3,3,6.9,4.5,10.8,4.5s7.8-1.5,10.8-4.5l18.9-18.9l18.9,18.9c3,3,6.9,4.5,10.8,4.5
		c3.9,0,7.8-1.5,10.8-4.5c6-6,6-15.6,0-21.6L1664.2-281.6z"/>
</g>
</svg>
