<?xml version="1.0" encoding="utf-8"?>
<!-- Generator: Adobe Illustrator 23.0.6, SVG Export Plug-In . SVG Version: 6.00 Build 0)  -->
<svg version="1.1" id="Layer_1" xmlns="http://www.w3.org/2000/svg" xmlns:xlink="http://www.w3.org/1999/xlink" x="0px" y="0px"
	 viewBox="0 0 512 512" enable-background="new 0 0 512 512" xml:space="preserve">
<g>
	<g>
		<g>
			<path d="M490.4,68.5h-78.1c-8.6,0-15.6,7-15.6,15.6v78.1c0,8.6,7,15.6,15.6,15.6h0c8.6,0,15.6-7,15.6-15.6v-41.1
				c30.4,38.3,47,85.9,46.9,134.8c0.1,120.8-97.9,218.8-218.8,218.9C135.4,474.9,37,376.7,37,256.1c0-120.8,97.9-218.8,218.8-218.9
				c31.2,0,62,6.6,90.4,19.5c7.5,3.4,16.4,0.5,20.3-6.8l0,0c4.3-8,0.9-17.9-7.4-21.7c-120-54.4-263.4-6.2-325.1,112.8
				c-62.8,121.1-16.1,271.2,104.3,335.4c121.7,64.9,273,19.1,338.1-102.4C495.8,337.7,506,297.2,506,256
				c0.1-56.9-19.4-112-55.2-156.2h39.6c8.6,0,15.6-7,15.6-15.6v0C506,75.5,499,68.5,490.4,68.5z"/>
		</g>
	</g>
</g>
</svg>
