<?xml version="1.0" encoding="utf-8"?>
<!-- Generator: Adobe Illustrator 23.0.6, SVG Export Plug-In . SVG Version: 6.00 Build 0)  -->
<svg version="1.1" id="Layer_1" xmlns="http://www.w3.org/2000/svg" xmlns:xlink="http://www.w3.org/1999/xlink" x="0px" y="0px"
	 viewBox="0 0 512 512" enable-background="new 0 0 512 512" xml:space="preserve">
<g>
	<path d="M490.7,6H21.3C12.8,6,6,12.8,6,21.3v469.5c0,8.4,6.8,15.3,15.3,15.3h469.5c8.4,0,15.3-6.8,15.3-15.3V21.3
		C506,12.8,499.2,6,490.7,6z M475.5,240.7H271.3V36.5h204.2V240.7z M36.5,36.5h204.2v204.2H36.5V36.5z M36.5,271.3h204.2v204.2H36.5
		V271.3z M475.5,475.5H271.3V271.3h204.2V475.5z"/>
	<path d="M373.4,345.5c9.2,0,16.6-7.4,16.6-16.6c0-9.2-7.4-16.6-16.6-16.6c-9.2,0-16.6,7.4-16.6,16.6
		C356.8,338.1,364.2,345.5,373.4,345.5z"/>
	<path d="M373.4,401.2c-9.2,0-16.6,7.4-16.6,16.6c0,9.2,7.4,16.6,16.6,16.6c9.2,0,16.6-7.4,16.6-16.6
		C390,408.7,382.5,401.2,373.4,401.2z"/>
	<path d="M331.6,388.6h83.6c8.4,0,15.3-6.8,15.3-15.3c0-8.4-6.8-15.3-15.3-15.3h-83.6c-8.4,0-15.3,6.8-15.3,15.3
		C316.3,381.8,323.1,388.6,331.6,388.6z"/>
	<path d="M331.3,153.9h84.1c8.4,0,15.3-6.8,15.3-15.3c0-8.4-6.8-15.3-15.3-15.3h-84.1c-8.4,0-15.3,6.8-15.3,15.3
		C316,147.1,322.9,153.9,331.3,153.9z"/>
	<path d="M180.7,123.4h-26.8V96.6c0-8.4-6.8-15.3-15.3-15.3c-8.4,0-15.3,6.8-15.3,15.3v26.8H96.6c-8.4,0-15.3,6.8-15.3,15.3
		s6.8,15.3,15.3,15.3h26.8v26.8c0,8.4,6.8,15.3,15.3,15.3c8.4,0,15.3-6.8,15.3-15.3v-26.8h26.8c8.4,0,15.3-6.8,15.3-15.3
		S189.1,123.4,180.7,123.4z"/>
	<path d="M160.2,373.4l18.9-18.9c6-6,6-15.6,0-21.6s-15.6-6-21.6,0l-18.9,18.9l-18.9-18.9c-6-6-15.6-6-21.6,0s-6,15.6,0,21.6
		l18.9,18.9l-18.9,18.9c-6,6-6,15.6,0,21.6c3,3,6.9,4.5,10.8,4.5s7.8-1.5,10.8-4.5l18.9-18.9l18.9,18.9c3,3,6.9,4.5,10.8,4.5
		c3.9,0,7.8-1.5,10.8-4.5c6-6,6-15.6,0-21.6L160.2,373.4z"/>
</g>
</svg>
