<?xml version="1.0" encoding="utf-8"?>
<!-- Generator: Adobe Illustrator 23.0.6, SVG Export Plug-In . SVG Version: 6.00 Build 0)  -->
<svg version="1.1" id="Layer_1" xmlns="http://www.w3.org/2000/svg" xmlns:xlink="http://www.w3.org/1999/xlink" x="0px" y="0px"
	 viewBox="0 0 512 512" enable-background="new 0 0 512 512" xml:space="preserve">
<g>
	<path d="M256,6C118.2,6,6,118.2,6,256s112.2,250,250,250s250-112.2,250-250S393.8,6,256,6z M256,474.8
		c-120.6,0-218.7-98.1-218.7-218.7S135.4,37.3,256,37.3S474.8,135.4,474.8,256S376.6,474.8,256,474.8z"/>
	<path d="M256,131L256,131c-8.6,0-15.6,7-15.6,15.6v93.8h-93.8c-8.6,0-15.6,7-15.6,15.6v0c0,8.6,7,15.6,15.6,15.6h93.8v93.8
		c0,8.6,7,15.6,15.6,15.6h0c8.6,0,15.6-7,15.6-15.6v-93.8h93.8c8.6,0,15.6-7,15.6-15.6v0c0-8.6-7-15.6-15.6-15.6h-93.8l0-93.8
		C271.6,138,264.6,131,256,131z"/>
</g>
</svg>
